<svg width="28" height="27" viewBox="0 0 28 27" fill="none" xmlns="http://www.w3.org/2000/svg">
<path fill-rule="evenodd" clip-rule="evenodd" d="M11.7766 3.08974C13.117 2.1726 14.883 2.1726 16.2235 3.08974L23.536 8.09303C24.6086 8.82697 25.25 10.043 25.25 11.3427V20.8125C25.25 22.9871 23.4871 24.75 21.3125 24.75H6.6875C4.51288 24.75 2.75 22.9871 2.75 20.8125V11.3427C2.75 10.043 3.39139 8.82697 4.46406 8.09303L11.7766 3.08974ZM11.1875 19.6875C10.8768 19.6875 10.625 19.9394 10.625 20.25C10.625 20.5606 10.8768 20.8125 11.1875 20.8125H16.8125C17.1231 20.8125 17.375 20.5606 17.375 20.25C17.375 19.9394 17.1231 19.6875 16.8125 19.6875H11.1875Z" fill="white"/>
</svg>
