<svg width="28" height="27" viewBox="0 0 28 27" fill="none" xmlns="http://www.w3.org/2000/svg">
<path d="M10.625 12.6562H4.71875C3.32319 12.6562 2.1875 11.5206 2.1875 10.125V4.21875C2.1875 2.82319 3.32319 1.6875 4.71875 1.6875H10.625C12.0206 1.6875 13.1562 2.82319 13.1562 4.21875V10.125C13.1562 11.5206 12.0206 12.6562 10.625 12.6562ZM4.71875 3.375C4.25384 3.375 3.875 3.75384 3.875 4.21875V10.125C3.875 10.5899 4.25384 10.9688 4.71875 10.9688H10.625C11.0899 10.9688 11.4688 10.5899 11.4688 10.125V4.21875C11.4688 3.75384 11.0899 3.375 10.625 3.375H4.71875ZM10.625 25.3125H4.71875C3.32319 25.3125 2.1875 24.1768 2.1875 22.7812V16.875C2.1875 15.4794 3.32319 14.3438 4.71875 14.3438H10.625C12.0206 14.3438 13.1562 15.4794 13.1562 16.875V22.7812C13.1562 24.1768 12.0206 25.3125 10.625 25.3125ZM4.71875 16.0312C4.25384 16.0312 3.875 16.4101 3.875 16.875V22.7812C3.875 23.2462 4.25384 23.625 4.71875 23.625H10.625C11.0899 23.625 11.4688 23.2462 11.4688 22.7812V16.875C11.4688 16.4101 11.0899 16.0312 10.625 16.0312H4.71875ZM23.2812 12.6562H17.375C15.9794 12.6562 14.8438 11.5206 14.8438 10.125V4.21875C14.8438 2.82319 15.9794 1.6875 17.375 1.6875H23.2812C24.6768 1.6875 25.8125 2.82319 25.8125 4.21875V10.125C25.8125 11.5206 24.6768 12.6562 23.2812 12.6562ZM17.375 3.375C16.9101 3.375 16.5312 3.75384 16.5312 4.21875V10.125C16.5312 10.5899 16.9101 10.9688 17.375 10.9688H23.2812C23.7462 10.9688 24.125 10.5899 24.125 10.125V4.21875C24.125 3.75384 23.7462 3.375 23.2812 3.375H17.375ZM8.09375 9.28125H7.25C6.31934 9.28125 5.5625 8.52441 5.5625 7.59375V6.75C5.5625 5.81934 6.31934 5.0625 7.25 5.0625H8.09375C9.02441 5.0625 9.78125 5.81934 9.78125 6.75V7.59375C9.78125 8.52441 9.02441 9.28125 8.09375 9.28125ZM7.25 6.75V7.59375H8.09459V6.75H7.25ZM8.09375 21.9375H7.25C6.31934 21.9375 5.5625 21.1807 5.5625 20.25V19.4062C5.5625 18.4756 6.31934 17.7188 7.25 17.7188H8.09375C9.02441 17.7188 9.78125 18.4756 9.78125 19.4062V20.25C9.78125 21.1807 9.02441 21.9375 8.09375 21.9375ZM7.25 19.4062V20.25H8.09459V19.4062H7.25ZM20.75 9.28125H19.9062C18.9756 9.28125 18.2188 8.52441 18.2188 7.59375V6.75C18.2188 5.81934 18.9756 5.0625 19.9062 5.0625H20.75C21.6807 5.0625 22.4375 5.81934 22.4375 6.75V7.59375C22.4375 8.52441 21.6807 9.28125 20.75 9.28125ZM19.9062 6.75V7.59375H20.7508V6.75H19.9062Z" fill="white"/>
<path d="M15.6875 21.9375C15.2218 21.9375 14.8438 21.5595 14.8438 21.0938V16.875C14.8438 15.9443 15.6006 15.1875 16.5312 15.1875H19.0625C19.5283 15.1875 19.9062 15.5655 19.9062 16.0312C19.9062 16.497 19.5283 16.875 19.0625 16.875H16.5312V21.0938C16.5312 21.5595 16.1532 21.9375 15.6875 21.9375ZM22.4375 21.9375C22.4375 21.4717 22.0595 21.0938 21.5938 21.0938H19.9062V19.4062C19.9062 18.9405 19.5283 18.5625 19.0625 18.5625C18.5968 18.5625 18.2188 18.9405 18.2188 19.4062V21.9375C18.2188 22.4033 18.5968 22.7812 19.0625 22.7812H21.5938C22.0595 22.7812 22.4375 22.4033 22.4375 21.9375ZM25.8125 16.0312C25.8125 15.5655 25.4345 15.1875 24.9688 15.1875H22.4375C21.9717 15.1875 21.5938 15.5655 21.5938 16.0312C21.5938 16.497 21.9717 16.875 22.4375 16.875H24.9688C25.4345 16.875 25.8125 16.497 25.8125 16.0312ZM25.8125 23.625V20.25C25.8125 19.3193 25.0557 18.5625 24.125 18.5625H23.2812C22.8155 18.5625 22.4375 18.9405 22.4375 19.4062C22.4375 19.872 22.8155 20.25 23.2812 20.25H24.125V23.625H21.5938C21.128 23.625 20.75 24.003 20.75 24.4688C20.75 24.9345 21.128 25.3125 21.5938 25.3125H24.125C25.0557 25.3125 25.8125 24.5557 25.8125 23.625ZM19.0625 24.4688C19.0625 24.003 18.6845 23.625 18.2188 23.625H15.6875C15.2218 23.625 14.8438 24.003 14.8438 24.4688C14.8438 24.9345 15.2218 25.3125 15.6875 25.3125H18.2188C18.6845 25.3125 19.0625 24.9345 19.0625 24.4688Z" fill="white"/>
</svg>
