<svg width="98" height="98" viewBox="0 0 98 98" fill="none" xmlns="http://www.w3.org/2000/svg">
<g clip-path="url(#clip0_58_32749)">
<path d="M48.9994 94.2267C73.977 94.2267 94.2254 73.9784 94.2254 49.0007C94.2254 24.0231 73.977 3.77478 48.9994 3.77478C24.0218 3.77478 3.77344 24.0231 3.77344 49.0007C3.77344 73.9784 24.0218 94.2267 48.9994 94.2267Z" fill="#F8AE20"/>
<path d="M49 97.9979C36.4459 97.9979 23.8919 93.2209 14.3341 83.6667C-4.77802 64.5546 -4.77802 33.4506 14.3341 14.3347C33.4462 -4.77356 64.5539 -4.77738 83.666 14.3347C102.778 33.4506 102.778 64.5507 83.666 83.6667C74.108 93.2209 61.5501 97.9979 49 97.9979ZM19.7035 19.7041C3.55348 35.858 3.55348 62.1434 19.7035 78.2972C35.8612 94.4473 62.1464 94.4511 78.2966 78.2972C94.4468 62.1434 94.4466 35.858 78.2966 19.7041C62.1387 3.55412 35.8574 3.55412 19.7035 19.7041Z" fill="#F8AE20"/>
<path d="M49.4765 57.5686C46.9795 57.5686 44.9529 55.5465 44.9529 53.0451V25.9036C44.9529 23.4066 46.9795 21.38 49.4765 21.38C51.9735 21.38 54 23.4066 54 25.9036V53.0451C54 55.5465 51.9735 57.5686 49.4765 57.5686Z" fill="white"/>
<path d="M49.4765 76.07C48.255 76.07 47.1241 75.6131 46.2647 74.7581C45.4053 73.8987 44.9529 72.7678 44.9529 71.5464C44.9529 70.9582 45.0886 70.3703 45.3147 69.8273C45.5408 69.2846 45.8575 68.787 46.2647 68.3346C46.4908 68.1537 46.7171 67.9274 46.9432 67.7919C47.2147 67.6109 47.4859 67.4752 47.7574 67.3846C48.0289 67.2489 48.3002 67.1585 48.6168 67.1087C50.0644 66.7965 51.6477 67.2896 52.688 68.3346C53.0952 68.787 53.4117 69.2846 53.638 69.8273C53.8641 70.3701 53.9998 70.9582 53.9998 71.5464C53.9998 72.7678 53.5474 73.8987 52.688 74.7581C52.2356 75.1654 51.738 75.4818 51.1953 75.7081C50.6525 75.9342 50.0646 76.07 49.4765 76.07Z" fill="white"/>
</g>
<defs>
<clipPath id="clip0_58_32749">
<rect width="98" height="98" fill="white"/>
</clipPath>
</defs>
</svg>
