<svg width="98" height="98" viewBox="0 0 98 98" fill="none" xmlns="http://www.w3.org/2000/svg">
<g clip-path="url(#clip0_49_6983)">
<path d="M48.9994 94.2267C73.977 94.2267 94.2254 73.9784 94.2254 49.0007C94.2254 24.0231 73.977 3.77478 48.9994 3.77478C24.0218 3.77478 3.77344 24.0231 3.77344 49.0007C3.77344 73.9784 24.0218 94.2267 48.9994 94.2267Z" fill="#D9001F"/>
<path d="M49 97.9979C36.4459 97.9979 23.8919 93.2209 14.3341 83.6667C-4.77802 64.5546 -4.77802 33.4506 14.3341 14.3347C33.4462 -4.77356 64.5539 -4.77738 83.666 14.3347C102.778 33.4506 102.778 64.5507 83.666 83.6667C74.108 93.2209 61.5501 97.9979 49 97.9979ZM19.7035 19.7041C3.55348 35.858 3.55348 62.1434 19.7035 78.2972C35.8612 94.4473 62.1464 94.4511 78.2966 78.2972C94.4468 62.1434 94.4466 35.858 78.2966 19.7041C62.1387 3.55412 35.8574 3.55412 19.7035 19.7041Z" fill="#D9001F"/>
<path d="M35.8159 65.9748C34.8437 65.9748 33.8717 65.6027 33.1312 64.8622C31.6464 63.3774 31.6464 60.9775 33.1312 59.4927L59.9783 32.6456C61.4631 31.1608 63.863 31.1608 65.3478 32.6456C66.8325 34.1303 66.8325 36.5302 65.3478 38.015L38.5006 64.8622C37.7562 65.6027 36.7878 65.9748 35.8159 65.9748Z" fill="white"/>
<path d="M62.6591 65.9748C61.687 65.9748 60.715 65.6027 59.9744 64.8622L33.1272 38.015C31.6425 36.5302 31.6425 34.1303 33.1272 32.6456C34.612 31.1608 37.0119 31.1608 38.4967 32.6456L65.3438 59.4927C66.8286 60.9775 66.8286 63.3774 65.3438 64.8622C64.6035 65.6027 63.6313 65.9748 62.6591 65.9748Z" fill="white"/>
</g>
<defs>
<clipPath id="clip0_49_6983">
<rect width="98" height="98" fill="white"/>
</clipPath>
</defs>
</svg>
