<svg width="124" height="159" viewBox="0 0 124 159" fill="none" xmlns="http://www.w3.org/2000/svg">
<path d="M83.7354 131.162H93.5818C95.3651 131.162 96.814 132.611 96.814 134.394V155.657C96.814 157.44 95.3651 158.889 93.5818 158.889H25.1158C23.3325 158.889 21.8835 157.44 21.8835 155.657V134.394C21.8835 132.611 23.3325 131.162 25.1158 131.162H83.7354Z" fill="#E3212C"/>
<path d="M48.4771 149.361V152.775H32.4497V137.786H40.172V149.361H48.4771Z" fill="white"/>
<path d="M52.7221 137.786V152.775H50.5566V137.786H52.7221Z" fill="white"/>
<path d="M74.1439 137.786L68.5424 152.775H60.5653L54.9639 137.786H59.1705L62.9601 148.696L66.7082 137.786H74.1439Z" fill="white"/>
<path d="M86.2512 152.775H75.2075V137.786H86.0251L86.0347 141.097H77.4366V143.451H83.3693V146.804H77.4366V149.469H86.2417L86.2481 152.781L86.2512 152.775Z" fill="white"/>
<g clip-path="url(#clip0_49_6895)">
<path d="M124 62C124 27.7425 96.2308 1.92395e-05 62 1.92395e-05C27.7692 -0.0266819 0 27.7425 0 62C0 96.2575 27.7692 124 62 124C96.2575 124 124 96.2308 124 62Z" fill="white"/>
<path d="M17.9434 75.6974L20.3999 72.7603C22.0019 74.0152 23.7375 74.6828 25.5799 74.6828C26.7814 74.6828 27.4223 74.2823 27.4223 73.588V73.5346C27.4223 72.8404 26.8882 72.52 24.6987 71.986C21.3077 71.2116 18.6643 70.2504 18.6643 66.9929V66.9394C18.6643 63.9756 21.014 61.8395 24.8589 61.8395C27.5825 61.8395 29.6918 62.5605 31.4274 63.9489L29.2112 67.073C27.7427 66.0316 26.1406 65.4976 24.7254 65.4976C23.6574 65.4976 23.1234 65.9248 23.1234 66.5122V66.5656C23.1234 67.2866 23.6841 67.607 25.9003 68.1143C29.5583 68.9153 31.8279 70.0902 31.8279 73.0807V73.1341C31.8279 76.3916 29.2379 78.3408 25.3663 78.3408C22.5894 78.3408 19.9192 77.4597 17.9434 75.6974ZM37.4886 65.9782H32.7091V62.1065H46.7005V65.9782H41.8943V78.0738H37.4886V65.9782ZM48.4627 71.0781V62.1065H52.9485V70.998C52.9485 73.2943 54.1234 74.3891 55.8856 74.3891C57.7013 74.3891 58.8495 73.3477 58.8495 71.1048V62.1065H63.3352V70.9713C63.3352 76.0979 60.3981 78.3942 55.8589 78.3942C51.3198 78.3675 48.4627 76.0712 48.4627 71.0781ZM65.4446 62.1065H71.6393C77.3266 62.1065 80.6376 65.3908 80.6376 70.0101V70.0635C80.6376 74.6828 77.2732 78.1005 71.5592 78.1005H65.4713V62.1065H65.4446ZM69.6901 66.2719V73.9351C69.6901 74.309 70.0639 74.5493 70.3309 74.3624L76.4455 70.5441C76.7392 70.3572 76.7392 69.8766 76.4455 69.6897L70.3309 65.8714C70.0639 65.6578 69.6901 65.8981 69.6901 66.2719ZM82.5334 62.1065H86.9657V78.0738H82.5334V62.1065ZM88.8615 70.1436V70.0902C88.8615 65.4976 92.5463 61.7861 97.486 61.7861C102.426 61.7861 106.057 65.4709 106.057 70.0368V70.0902C106.057 74.6828 102.372 78.3942 97.4326 78.3942C92.5196 78.3942 88.8615 74.7095 88.8615 70.1436ZM101.518 70.1436V70.0902C101.518 67.7672 99.8624 65.7646 97.4326 65.7646C95.0028 65.7646 93.374 67.7405 93.374 70.0368V70.0902C93.374 72.3865 95.0295 74.4158 97.486 74.4158C99.9158 74.4158 101.518 72.4399 101.518 70.1436Z" fill="#ED1C24"/>
<path d="M54.1227 39.1975C49.0495 39.1975 44.0297 42.0812 44.0297 48.5161C44.0297 49.1303 44.1899 50.3585 44.1899 50.3585C43.9763 50.7056 41.4396 55.4584 36.6601 55.4584C32.1744 55.4584 28.9969 52.2543 28.9969 44.6445C28.9969 37.008 31.9874 33.0295 35.9926 33.0295C41.1459 33.0295 43.4155 38.9571 43.816 39.8383L44.3501 32.6023C42.214 33.0028 39.9444 31.374 35.779 31.374C27.9289 31.374 22.2148 37.3551 22.2148 45.045C22.2148 52.7082 27.4216 57.8615 34.9246 57.8615C41.8669 57.8615 44.4836 53.1621 44.8574 52.6014C44.9375 52.7883 46.8867 57.728 53.7222 57.728C60.5576 57.728 64.0021 53.349 64.0021 48.3292C64.0288 43.3094 60.7446 39.1975 54.1227 39.1975ZM53.6955 56.3663C50.1175 56.3663 50.0374 50.492 50.0374 48.2491C50.0374 46.8607 49.984 40.5325 53.9091 40.5325C57.3268 40.5325 57.5137 45.9528 57.5137 48.436C57.487 50.9459 57.1666 56.3663 53.6955 56.3663ZM92.2786 55.0846C88.22 55.0846 87.9263 50.9459 87.7127 49.958C90.1425 49.6376 98.7135 48.9968 98.7135 43.8167C98.7135 40.1053 95.0022 39.2509 91.8513 39.2509C85.7368 39.2509 81.518 43.3094 81.518 48.8365C81.518 52.815 83.2536 54.5239 83.7876 55.1113C81.251 55.6186 80.45 54.0433 79.5688 52.7616C78.661 51.48 75.3501 46.0596 75.3501 46.0596L81.4112 39.0105H74.1752C74.4422 39.0105 76.0443 39.9985 76.0443 41.0131C76.0443 41.3602 75.9108 41.5471 75.6705 41.8676C75.4035 42.1613 70.7842 47.5549 70.7842 47.5549V32.5756H62.8539C62.8539 32.5756 65.1235 32.9227 65.1235 35.3792V57.194H70.7842V50.5454L71.6386 49.4507C71.6386 49.4507 73.6679 52.9485 74.8694 54.8443C76.071 56.7401 77.593 57.728 80.1563 57.728C82.5327 57.728 85.1761 56.3129 85.1761 56.3129C85.1761 56.3129 87.0719 57.7547 90.6765 57.7547C96.9246 57.7547 98.5533 52.9485 98.7669 52.3077C98.7669 52.281 96.3372 55.0846 92.2786 55.0846ZM90.7299 40.666C92.7325 40.666 93.1864 43.1225 93.1864 44.8047C93.1864 48.2758 87.8195 48.4627 87.5792 48.4627C87.5792 42.8021 89.3147 40.666 90.7299 40.666Z" fill="#ED1C24"/>
<path d="M100.449 56.6064H100.129V57.1137H99.8887V55.832H100.583C100.663 55.832 100.743 55.8587 100.797 55.8854C100.85 55.9121 100.903 55.9655 100.93 56.0189C100.957 56.0723 100.983 56.1524 100.983 56.2058C100.983 56.286 100.957 56.3661 100.903 56.4462C100.85 56.4996 100.797 56.553 100.69 56.5797L101.037 57.1137H100.77L100.449 56.6064ZM100.129 56.3928H100.556C100.61 56.3928 100.663 56.3661 100.69 56.3394C100.716 56.3127 100.743 56.2593 100.743 56.2058C100.743 56.1524 100.716 56.099 100.69 56.0723C100.663 56.0456 100.61 56.0189 100.556 56.0189H100.129V56.3928Z" fill="white"/>
<path d="M100.395 57.7547C99.7007 57.7547 99.1133 57.194 99.1133 56.4731C99.1133 55.7521 99.674 55.1914 100.395 55.1914C101.089 55.1914 101.677 55.7521 101.677 56.4731C101.677 57.194 101.089 57.7547 100.395 57.7547ZM100.395 55.3783C99.7808 55.3783 99.3002 55.8589 99.3002 56.4731C99.3002 57.0872 99.7808 57.5678 100.395 57.5678C101.009 57.5678 101.49 57.0872 101.49 56.4731C101.49 55.8589 100.982 55.3783 100.395 55.3783Z" fill="white"/>
<path d="M38.3965 82.96V85.3898H46.4602L38.4232 88.2201V93.0263C39.6514 92.9462 46.0597 92.3054 46.6471 94.0142C46.8073 94.4414 46.8073 95.0556 46.8073 95.4561L49.6911 95.4828V85.4165H51.6669V95.4828H54.3638V85.4165H55.5653V82.9867H38.3965V82.96ZM45.7393 90.7033C45.5791 90.6766 45.4456 90.6499 45.4189 90.6499C44.2974 90.4897 43.176 90.4897 42.0278 90.463V89.7687L46.7272 88.0599L46.7005 90.9703C46.7005 90.8902 46.1398 90.7834 45.7393 90.7033Z" fill="#ED1C24"/>
<path d="M59.7047 82.9335C59.0639 83.0136 58.423 83.2272 57.889 83.6278C56.7409 84.4822 56.4471 86.0042 56.9011 87.3125C57.1414 87.98 57.5419 88.5942 58.1293 89.0481C59.1707 89.8758 60.6926 90.1161 61.9476 89.6088C63.1758 89.1015 63.9769 87.8465 64.057 86.5115C64.1371 85.0429 63.2292 83.7613 61.8675 83.2005C61.1999 82.9602 60.4256 82.8534 59.7047 82.9335ZM58.9838 86.9921C58.7434 86.4314 58.8235 85.7638 59.2508 85.2832C59.7581 84.7492 60.5858 84.6958 61.1999 85.0429C61.7073 85.3099 62.0811 85.8707 62.0544 86.4581C62.0544 86.8586 61.8942 87.2591 61.5738 87.5528C60.7994 88.3272 59.411 87.98 58.9838 86.9921Z" fill="#ED1C24"/>
<path d="M56.0462 90.7571L56.0195 93.6408C56.0195 93.6408 61.8404 93.3471 63.7095 95.7502C65.0445 95.7235 66.3529 95.7502 66.3529 95.7502C66.3529 95.7502 65.2581 90.944 56.0462 90.7571Z" fill="#ED1C24"/>
<path d="M86.3524 82.96H66.0862V85.3898H77.6478L77.6745 88.5939C77.3007 87.4457 74.2835 87.2588 73.8296 89.5284C73.2955 86.5379 65.8726 85.9238 65.8459 91.2907C65.8192 94.3613 68.0621 94.8687 69.2904 94.655C70.4118 94.4681 71.3197 93.587 71.4532 92.4656C71.4532 92.4122 71.4532 92.3588 71.4799 92.3054C71.5867 91.0771 70.5987 90.2494 70.0647 89.9023C69.9312 89.8221 69.9579 89.5818 70.0914 89.5284C70.7322 89.3148 72.4144 89.2614 72.7348 91.6912C72.8149 92.2253 72.7882 92.9462 72.7882 92.9462L75.218 92.9729V91.6378V91.4776C75.218 90.73 75.8322 90.1426 76.4997 90.1426C77.1405 90.1426 77.6211 90.7834 77.6478 91.5043C77.6478 91.531 77.6478 91.531 77.6478 91.5577V95.4561H80.1577V85.3631H82.1603V95.4561H84.6168V85.3631H86.3791L86.3524 82.96ZM69.1569 92.786C68.7564 92.9729 68.249 92.7593 68.0354 92.3054C67.7951 91.8514 67.9286 91.3174 68.3291 91.1305C68.7297 90.9436 69.237 91.1572 69.4506 91.6111C69.6909 92.0383 69.5574 92.5724 69.1569 92.786Z" fill="#ED1C24"/>
</g>
<defs>
<clipPath id="clip0_49_6895">
<rect width="124" height="124" fill="white"/>
</clipPath>
</defs>
</svg>
