<svg width="168" height="216" viewBox="0 0 168 216" fill="none" xmlns="http://www.w3.org/2000/svg">
<path d="M113.426 177.572H126.757C129.171 177.572 131.133 179.534 131.133 181.948V210.734C131.133 213.149 129.171 215.11 126.757 215.11H34.0649C31.6506 215.11 29.689 213.149 29.689 210.734V181.948C29.689 179.534 31.6506 177.572 34.0649 177.572H113.426Z" fill="#E3212C"/>
<path d="M65.6922 202.211V206.832H43.9937V186.539H54.4484V202.211H65.6922Z" fill="white"/>
<path d="M71.439 186.539V206.832H68.5073V186.539H71.439Z" fill="white"/>
<path d="M100.441 186.539L92.8573 206.832H82.0576L74.4741 186.539H80.1693L85.2997 201.309L90.374 186.539H100.441Z" fill="white"/>
<path d="M116.832 206.832H101.881V186.539H116.526L116.539 191.023H104.899V194.209H112.931V198.748H104.899V202.357H116.819L116.828 206.841L116.832 206.832Z" fill="white"/>
<g clip-path="url(#clip0_49_5843)">
<path d="M167.938 83.938C167.938 37.5589 130.343 2.60472e-05 84 2.60472e-05C37.657 -0.036123 0.0620117 37.5589 0.0620117 83.938C0.0620117 130.317 37.657 167.876 84 167.876C130.379 167.876 167.938 130.281 167.938 83.938Z" fill="#E3212C"/>
<path d="M24.3545 102.482L27.6802 98.5057C29.849 100.205 32.1988 101.108 34.6931 101.108C36.3197 101.108 37.1874 100.566 37.1874 99.6263V99.554C37.1874 98.6142 36.4643 98.1804 33.5001 97.4575C28.9092 96.4091 25.3305 95.1077 25.3305 90.6976V90.6252C25.3305 86.6127 28.5116 83.7207 33.717 83.7207C37.4043 83.7207 40.2599 84.6969 42.6097 86.5765L39.6093 90.806C37.6212 89.3962 35.4522 88.6732 33.5362 88.6732C32.0903 88.6732 31.3674 89.2516 31.3674 90.0468V90.1191C31.3674 91.0952 32.1265 91.529 35.1269 92.2158C40.0792 93.3002 43.1519 94.8909 43.1519 98.9395V99.0118C43.1519 103.422 39.6454 106.061 34.4039 106.061C30.6444 106.061 27.0294 104.868 24.3545 102.482ZM50.8155 89.3239H44.3449V84.0822H63.287V89.3239H56.7802V105.699H50.8155V89.3239ZM65.6727 96.2283V84.0822H71.7458V96.1199C71.7458 99.2287 73.3364 100.711 75.7221 100.711C78.1803 100.711 79.7348 99.301 79.7348 96.2645V84.0822H85.8077V96.0837C85.8077 103.024 81.8313 106.133 75.686 106.133C69.5408 106.097 65.6727 102.988 65.6727 96.2283ZM88.6635 84.0822H97.0501C104.75 84.0822 109.232 88.5286 109.232 94.7824V94.8547C109.232 101.108 104.677 105.736 96.9417 105.736H88.6996V84.0822H88.6635ZM94.4112 89.7215V100.096C94.4112 100.602 94.9173 100.928 95.2787 100.675L103.557 95.5054C103.955 95.2523 103.955 94.6017 103.557 94.3486L95.2787 89.1793C94.9173 88.8901 94.4112 89.2154 94.4112 89.7215ZM111.799 84.0822H117.8V105.699H111.799V84.0822ZM120.366 94.9632V94.8909C120.366 88.6732 125.355 83.6484 132.042 83.6484C138.73 83.6484 143.646 88.6371 143.646 94.8186V94.8909C143.646 101.108 138.657 106.133 131.97 106.133C125.319 106.133 120.366 101.145 120.366 94.9632ZM137.501 94.9632V94.8909C137.501 91.7459 135.26 89.0347 131.97 89.0347C128.681 89.0347 126.475 91.7097 126.475 94.8186V94.8909C126.475 97.9997 128.717 100.747 132.042 100.747C135.332 100.747 137.501 98.072 137.501 94.9632Z" fill="#010101"/>
<path d="M73.3354 53.0671C66.4671 53.0671 59.6711 56.9712 59.6711 65.683C59.6711 66.5145 59.888 68.1773 59.888 68.1773C59.5988 68.6472 56.1645 75.0817 49.6938 75.0817C43.6209 75.0817 39.3191 70.7439 39.3191 60.4415C39.3191 50.1029 43.3677 44.7166 48.7901 44.7166C55.7669 44.7166 58.8395 52.7416 59.3818 53.9346L60.1048 44.1383C57.2129 44.6805 54.1402 42.4753 48.501 42.4753C37.8732 42.4753 30.1372 50.5728 30.1372 60.9837C30.1372 71.3584 37.1864 78.3352 47.3442 78.3352C56.743 78.3352 60.2856 71.9729 60.7916 71.2138C60.9001 71.4669 63.539 78.1544 72.7932 78.1544C82.0472 78.1544 86.7105 72.226 86.7105 65.43C86.7466 58.634 82.3004 53.0671 73.3354 53.0671ZM72.757 76.3109C67.913 76.3109 67.8045 68.358 67.8045 65.3215C67.8045 63.4418 67.7322 54.8745 73.0462 54.8745C77.6732 54.8745 77.9262 62.2127 77.9262 65.5745C77.8901 68.9725 77.4563 76.3109 72.757 76.3109ZM124.992 74.5757C119.498 74.5757 119.1 68.9725 118.811 67.6351C122.1 67.2013 133.704 66.3338 133.704 59.3208C133.704 54.2961 128.68 53.1394 124.414 53.1394C116.136 53.1394 110.424 58.634 110.424 66.1168C110.424 71.503 112.774 73.8166 113.497 74.6118C110.063 75.2986 108.978 73.1659 107.785 71.4307C106.556 69.6956 102.074 62.3573 102.074 62.3573L110.28 52.8139H100.483C100.845 52.8139 103.014 54.1515 103.014 55.5251C103.014 55.995 102.833 56.2481 102.508 56.682C102.146 57.0796 95.8924 64.3817 95.8924 64.3817V44.1021H85.156C85.156 44.1021 88.2287 44.572 88.2287 47.8977V77.4315H95.8924V68.4303L97.0491 66.9483C97.0491 66.9483 99.7964 71.6837 101.423 74.2504C103.05 76.817 105.11 78.1544 108.581 78.1544C111.798 78.1544 115.377 76.2386 115.377 76.2386C115.377 76.2386 117.943 78.1906 122.823 78.1906C131.282 78.1906 133.487 71.6837 133.776 70.8162C133.776 70.7801 130.487 74.5757 124.992 74.5757ZM122.896 55.0552C125.607 55.0552 126.221 58.3809 126.221 60.6583C126.221 65.3577 118.955 65.6107 118.63 65.6107C118.63 57.9472 120.98 55.0552 122.896 55.0552Z" fill="white"/>
<path d="M136.054 76.636H135.62V77.3228H135.295V75.5876H136.235C136.343 75.5876 136.452 75.6237 136.525 75.6598C136.597 75.696 136.668 75.7683 136.705 75.8406C136.741 75.9129 136.777 76.0213 136.777 76.0936C136.777 76.2022 136.741 76.3106 136.668 76.4191C136.597 76.4914 136.525 76.5637 136.38 76.5998L136.85 77.3228H136.488L136.054 76.636ZM135.62 76.3468H136.199C136.272 76.3468 136.343 76.3106 136.38 76.2745C136.415 76.2383 136.452 76.166 136.452 76.0936C136.452 76.0213 136.415 75.949 136.38 75.9129C136.343 75.8767 136.272 75.8406 136.199 75.8406H135.62V76.3468Z" fill="white"/>
<path d="M135.981 78.1906C135.041 78.1906 134.245 77.4315 134.245 76.4555C134.245 75.4794 135.004 74.7203 135.981 74.7203C136.92 74.7203 137.716 75.4794 137.716 76.4555C137.716 77.4315 136.92 78.1906 135.981 78.1906ZM135.981 74.9733C135.149 74.9733 134.498 75.624 134.498 76.4555C134.498 77.2869 135.149 77.9375 135.981 77.9375C136.812 77.9375 137.463 77.2869 137.463 76.4555C137.463 75.624 136.775 74.9733 135.981 74.9733Z" fill="white"/>
<path d="M52.0447 112.314V115.604H62.9616L52.0808 119.436V125.943C53.7436 125.834 62.4194 124.967 63.2147 127.28C63.4315 127.858 63.4316 128.69 63.4316 129.232L67.3358 129.268V115.64H70.0107V129.268H73.6618V115.64H75.2885V112.351H52.0447V112.314ZM61.9856 122.798C61.7688 122.762 61.588 122.725 61.5519 122.725C60.0335 122.508 58.5154 122.508 56.9609 122.472V121.532L63.3231 119.219L63.287 123.159C63.287 123.051 62.5279 122.906 61.9856 122.798Z" fill="white"/>
<path d="M80.8924 112.279C80.0248 112.387 79.1572 112.676 78.4342 113.219C76.8799 114.375 76.4821 116.436 77.0968 118.207C77.4221 119.111 77.9643 119.942 78.7595 120.557C80.1694 121.677 82.2298 122.003 83.9289 121.316C85.5917 120.629 86.6763 118.93 86.7847 117.123C86.8931 115.134 85.664 113.399 83.8205 112.64C82.9166 112.315 81.8684 112.17 80.8924 112.279ZM79.9164 117.773C79.5909 117.014 79.6994 116.11 80.2779 115.46C80.9647 114.737 82.0853 114.664 82.9166 115.134C83.6036 115.496 84.1097 116.255 84.0735 117.05C84.0735 117.593 83.8566 118.135 83.4228 118.532C82.3744 119.581 80.4948 119.111 79.9164 117.773Z" fill="white"/>
<path d="M75.9395 122.871L75.9033 126.775C75.9033 126.775 83.7839 126.377 86.3143 129.63C88.1217 129.594 89.8931 129.63 89.8931 129.63C89.8931 129.63 88.4109 123.124 75.9395 122.871Z" fill="white"/>
<path d="M116.969 112.314H89.5322V115.604H105.185L105.221 119.942C104.715 118.387 100.63 118.134 100.016 121.207C99.2924 117.158 89.243 116.327 89.2069 123.593C89.1707 127.75 92.2072 128.437 93.8702 128.148C95.3884 127.895 96.6175 126.702 96.7982 125.184C96.7982 125.111 96.7982 125.039 96.8344 124.967C96.979 123.304 95.6414 122.183 94.9184 121.713C94.7377 121.605 94.7738 121.279 94.9546 121.207C95.8221 120.918 98.0996 120.846 98.5333 124.135C98.6418 124.858 98.6056 125.834 98.6056 125.834L101.895 125.87V124.063V123.846C101.895 122.834 102.727 122.039 103.63 122.039C104.498 122.039 105.149 122.906 105.185 123.882C105.185 123.918 105.185 123.918 105.185 123.954V129.232H108.583V115.568H111.294V129.232H114.62V115.568H117.006L116.969 112.314ZM93.6894 125.617C93.1472 125.87 92.4603 125.581 92.1711 124.967C91.8458 124.352 92.0265 123.629 92.5687 123.376C93.1111 123.123 93.7979 123.412 94.087 124.027C94.4124 124.605 94.2316 125.328 93.6894 125.617Z" fill="white"/>
</g>
<defs>
<clipPath id="clip0_49_5843">
<rect width="167.876" height="167.876" fill="white" transform="translate(0.0620117)"/>
</clipPath>
</defs>
</svg>
