<svg width="82" height="82" viewBox="0 0 82 82" fill="none" xmlns="http://www.w3.org/2000/svg">
<rect width="82" height="82" rx="20" fill="white"/>
<g clip-path="url(#clip0_49_6932)">
<path d="M17.187 33.8562C15.7582 33.8562 14.8057 32.9036 14.8057 31.4748V21.9496C14.8057 17.9013 17.9013 14.8057 21.9496 14.8057H31.4748C32.9036 14.8057 33.8562 15.7582 33.8562 17.187C33.8562 18.6158 32.9036 19.5683 31.4748 19.5683H21.9496C20.5208 19.5683 19.5682 20.5209 19.5682 21.9497V31.4749C19.5683 32.9036 18.6158 33.8562 17.187 33.8562Z" fill="#E3212C"/>
<path d="M64.8132 33.8562C63.3844 33.8562 62.4318 32.9036 62.4318 31.4748V21.9496C62.4318 20.5208 61.4793 19.5682 60.0505 19.5682H50.5253C49.0965 19.5682 48.1439 18.6157 48.1439 17.1869C48.1439 15.7581 49.0965 14.8057 50.5253 14.8057H60.0505C64.0987 14.8057 67.1944 17.9013 67.1944 21.9496V31.4748C67.1945 32.9036 66.2419 33.8562 64.8132 33.8562Z" fill="#E3212C"/>
<path d="M31.4748 67.1945H21.9496C17.9013 67.1945 14.8057 64.0989 14.8057 60.0506V50.5254C14.8057 49.0966 15.7582 48.144 17.187 48.144C18.6158 48.144 19.5683 49.0966 19.5683 50.5254V60.0506C19.5683 61.4794 20.5209 62.432 21.9497 62.432H31.4749C32.9037 62.432 33.8562 63.3845 33.8562 64.8133C33.8562 66.242 32.9036 67.1945 31.4748 67.1945Z" fill="#E3212C"/>
<path d="M60.0506 67.1945H50.5254C49.0966 67.1945 48.144 66.2419 48.144 64.8132C48.144 63.3844 49.0966 62.4318 50.5254 62.4318H60.0506C61.4794 62.4318 62.432 61.4793 62.432 60.0505V50.5253C62.432 49.0965 63.3845 48.1439 64.8133 48.1439C66.2421 48.1439 67.1946 49.0965 67.1946 50.5253V60.0505C67.1945 64.0988 64.0989 67.1945 60.0506 67.1945Z" fill="#E3212C"/>
<path d="M36.2374 38.6188H26.7121C25.2834 38.6188 24.3308 37.6663 24.3308 36.2375V26.7123C24.3308 25.2835 25.2834 24.3309 26.7121 24.3309H36.2374C37.6662 24.3309 38.6187 25.2835 38.6187 26.7123V36.2375C38.6187 37.6663 37.6662 38.6188 36.2374 38.6188ZM29.0935 33.8562H33.8562V29.0935H29.0935V33.8562Z" fill="#E3212C"/>
<path d="M36.2374 57.6693H26.7121C25.2834 57.6693 24.3308 56.7167 24.3308 55.2879V45.7627C24.3308 44.3339 25.2834 43.3813 26.7121 43.3813H36.2374C37.6662 43.3813 38.6187 44.3339 38.6187 45.7627V55.2879C38.6187 56.7167 37.6662 57.6693 36.2374 57.6693ZM29.0935 52.9066H33.8562V48.1439H29.0935V52.9066Z" fill="#E3212C"/>
<path d="M55.2879 38.6188H45.7627C44.3339 38.6188 43.3813 37.6663 43.3813 36.2375V26.7123C43.3813 25.2835 44.3339 24.3309 45.7627 24.3309H55.2879C56.7167 24.3309 57.6693 25.2835 57.6693 26.7123V36.2375C57.6693 37.6663 56.7167 38.6188 55.2879 38.6188ZM48.144 33.8562H52.9067V29.0935H48.144V33.8562Z" fill="#E3212C"/>
<path d="M45.7627 50.5254C44.3339 50.5254 43.3813 49.5728 43.3813 48.144V45.7627C43.3813 44.3339 44.3339 43.3813 45.7627 43.3813C47.1915 43.3813 48.144 44.3339 48.144 45.7627V48.144C48.144 49.5729 47.1915 50.5254 45.7627 50.5254Z" fill="#E3212C"/>
<path d="M55.2879 48.144H52.9066C51.4778 48.144 50.5253 47.1915 50.5253 45.7627C50.5253 44.3339 51.4778 43.3813 52.9066 43.3813H55.2879C56.7167 43.3813 57.6693 44.3339 57.6693 45.7627C57.6693 47.1915 56.7167 48.144 55.2879 48.144Z" fill="#E3212C"/>
<path d="M55.2879 57.6693H48.144C46.7152 57.6693 45.7627 56.7167 45.7627 55.288C45.7627 53.8592 46.7152 52.9066 48.144 52.9066H55.2879C56.7167 52.9066 57.6693 53.8592 57.6693 55.288C57.6693 56.7167 56.7167 57.6693 55.2879 57.6693Z" fill="#E3212C"/>
</g>
<defs>
<clipPath id="clip0_49_6932">
<rect width="52.3889" height="52.3889" fill="white" transform="translate(14.8057 14.8057)"/>
</clipPath>
</defs>
</svg>
