<svg width="76" height="76" viewBox="0 0 76 76" fill="none" xmlns="http://www.w3.org/2000/svg">
<g clip-path="url(#clip0_49_6527)">
<path d="M76 38C76 17.0035 58.9802 1.17919e-05 38 1.17919e-05C17.0198 -0.0163534 0 17.0035 0 38C0 58.9965 17.0198 76 38 76C58.9965 76 76 58.9802 76 38Z" fill="white"/>
<path d="M10.9976 46.3952L12.5032 44.595C13.485 45.3642 14.5488 45.7733 15.678 45.7733C16.4144 45.7733 16.8072 45.5279 16.8072 45.1023V45.0696C16.8072 44.6441 16.4799 44.4477 15.1379 44.1205C13.0595 43.6458 11.4394 43.0567 11.4394 41.0602V41.0274C11.4394 39.2109 12.8795 37.9016 15.2361 37.9016C16.9054 37.9016 18.1982 38.3435 19.2619 39.1945L17.9036 41.1093C17.0036 40.471 16.0216 40.1437 15.1543 40.1437C14.4997 40.1437 14.1724 40.4055 14.1724 40.7655V40.7983C14.1724 41.2402 14.5161 41.4366 15.8744 41.7475C18.1164 42.2384 19.5074 42.9585 19.5074 44.7914V44.8241C19.5074 46.8207 17.92 48.0153 15.5471 48.0153C13.8451 48.0153 12.2085 47.4753 10.9976 46.3952ZM22.9769 40.4383H20.0475V38.0653H28.6229V40.4383H25.6771V47.8517H22.9769V40.4383ZM29.7029 43.564V38.0653H32.4523V43.5149C32.4523 44.9223 33.1724 45.5933 34.2525 45.5933C35.3653 45.5933 36.069 44.955 36.069 43.5804V38.0653H38.8183V43.4985C38.8183 46.6406 37.0182 48.0481 34.2361 48.0481C31.4541 48.0317 29.7029 46.6243 29.7029 43.564ZM40.1112 38.0653H43.908C47.3937 38.0653 49.423 40.0782 49.423 42.9094V42.9421C49.423 45.7733 47.361 47.8681 43.8589 47.8681H40.1276V38.0653H40.1112ZM42.7133 40.6183V45.3151C42.7133 45.5442 42.9424 45.6915 43.106 45.577L46.8537 43.2367C47.0337 43.1222 47.0337 42.8276 46.8537 42.713L43.106 40.3728C42.9424 40.2419 42.7133 40.3892 42.7133 40.6183ZM50.585 38.0653H53.3016V47.8517H50.585V38.0653ZM54.4635 42.9912V42.9585C54.4635 40.1437 56.7219 37.8689 59.7495 37.8689C62.7772 37.8689 65.0027 40.1273 65.0027 42.9258V42.9585C65.0027 45.7733 62.7441 48.0481 59.7168 48.0481C56.7056 48.0481 54.4635 45.7897 54.4635 42.9912ZM62.2207 42.9912V42.9585C62.2207 41.5347 61.206 40.3073 59.7168 40.3073C58.2275 40.3073 57.2292 41.5184 57.2292 42.9258V42.9585C57.2292 44.3659 58.2439 45.6097 59.7495 45.6097C61.2387 45.6097 62.2207 44.3987 62.2207 42.9912Z" fill="#ED1C24"/>
<path d="M33.172 24.0243C30.0626 24.0243 26.9859 25.7917 26.9859 29.7357C26.9859 30.1121 27.0841 30.8649 27.0841 30.8649C26.9532 31.0776 25.3985 33.9906 22.4691 33.9906C19.7198 33.9906 17.7723 32.0268 17.7723 27.3628C17.7723 22.6823 19.6052 20.2439 22.06 20.2439C25.2184 20.2439 26.6095 23.8769 26.855 24.417L27.1823 19.9821C25.8731 20.2275 24.482 19.2292 21.9291 19.2292C17.1177 19.2292 13.6155 22.8951 13.6155 27.6082C13.6155 32.305 16.8068 35.4635 21.4054 35.4635C25.6603 35.4635 27.2641 32.5832 27.4932 32.2396C27.5423 32.3541 28.737 35.3817 32.9265 35.3817C37.1159 35.3817 39.2271 32.6978 39.2271 29.6211C39.2434 26.5445 37.2305 24.0243 33.172 24.0243ZM32.9101 34.5471C30.7172 34.5471 30.6681 30.9467 30.6681 29.572C30.6681 28.7211 30.6353 24.8425 33.041 24.8425C35.1358 24.8425 35.2503 28.1646 35.2503 29.6866C35.234 31.2249 35.0376 34.5471 32.9101 34.5471ZM56.5578 33.7615C54.0703 33.7615 53.8903 31.2249 53.7594 30.6194C55.2486 30.423 60.5018 30.0303 60.5018 26.8554C60.5018 24.5807 58.2271 24.057 56.2959 24.057C52.5484 24.057 49.9626 26.5445 49.9626 29.932C49.9626 32.3705 51.0264 33.4179 51.3537 33.7779C49.799 34.0888 49.3081 33.1233 48.768 32.3378C48.2116 31.5523 46.1823 28.2301 46.1823 28.2301L49.8972 23.9097H45.4622C45.6259 23.9097 46.6078 24.5152 46.6078 25.1371C46.6078 25.3498 46.526 25.4644 46.3787 25.6608C46.215 25.8408 43.3839 29.1466 43.3839 29.1466V19.9657H38.5233C38.5233 19.9657 39.9144 20.1784 39.9144 21.684V35.0544H43.3839V30.9794L43.9075 30.3085C43.9075 30.3085 45.1513 32.4523 45.8877 33.6142C46.6241 34.7762 47.557 35.3817 49.128 35.3817C50.5845 35.3817 52.2047 34.5144 52.2047 34.5144C52.2047 34.5144 53.3666 35.398 55.5759 35.398C59.4054 35.398 60.4036 32.4523 60.5345 32.0596C60.5345 32.0432 59.0454 33.7615 56.5578 33.7615ZM55.6086 24.9243C56.836 24.9243 57.1142 26.4299 57.1142 27.4609C57.1142 29.5884 53.8248 29.7029 53.6776 29.7029C53.6776 26.2335 54.7413 24.9243 55.6086 24.9243Z" fill="#ED1C24"/>
<path d="M61.5655 34.6942H61.3694V35.0052H61.2221V34.2196H61.6476C61.6967 34.2196 61.7457 34.236 61.7788 34.2523C61.8113 34.2687 61.8438 34.3014 61.8603 34.3342C61.8769 34.3669 61.8928 34.416 61.8928 34.4487C61.8928 34.4979 61.8769 34.547 61.8438 34.5961C61.8113 34.6288 61.7788 34.6615 61.7132 34.6779L61.9259 35.0052H61.7623L61.5655 34.6942ZM61.3694 34.5633H61.6311C61.6642 34.5633 61.6967 34.547 61.7132 34.5306C61.7292 34.5142 61.7457 34.4815 61.7457 34.4487C61.7457 34.416 61.7292 34.3833 61.7132 34.3669C61.6967 34.3505 61.6642 34.3342 61.6311 34.3342H61.3694V34.5633Z" fill="white"/>
<path d="M61.5324 35.398C61.1069 35.398 60.7469 35.0544 60.7469 34.6125C60.7469 34.1706 61.0905 33.827 61.5324 33.827C61.9578 33.827 62.3182 34.1706 62.3182 34.6125C62.3182 35.0544 61.9578 35.398 61.5324 35.398ZM61.5324 33.9415C61.156 33.9415 60.8614 34.2361 60.8614 34.6125C60.8614 34.9889 61.156 35.2835 61.5324 35.2835C61.9087 35.2835 62.2035 34.9889 62.2035 34.6125C62.2035 34.2361 61.8922 33.9415 61.5324 33.9415Z" fill="white"/>
<path d="M23.5333 50.8465V52.3357H28.4756L23.5497 54.0704V57.0161C24.3025 56.967 28.2301 56.5743 28.5901 57.6216C28.6883 57.8834 28.6883 58.2599 28.6883 58.5054L30.4558 58.5217V52.352H31.6668V58.5217H33.3197V52.352H34.0561V50.8628H23.5333V50.8465ZM28.0338 55.5923C27.9356 55.576 27.8537 55.5596 27.8374 55.5596C27.15 55.4614 26.4627 55.4614 25.759 55.4451V55.0195L28.6392 53.9722L28.6229 55.756C28.6229 55.7069 28.2792 55.6414 28.0338 55.5923Z" fill="#ED1C24"/>
<path d="M36.5932 50.8302C36.2005 50.8793 35.8076 51.0102 35.4804 51.2557C34.7767 51.7794 34.5966 52.7123 34.8749 53.5141C35.0222 53.9232 35.2676 54.2997 35.6276 54.5779C36.2659 55.0852 37.1987 55.2324 37.9679 54.9215C38.7207 54.6106 39.2117 53.8414 39.2607 53.0232C39.3098 52.1231 38.7534 51.3376 37.9188 50.9939C37.5096 50.8466 37.035 50.7811 36.5932 50.8302ZM36.1514 53.3177C36.004 52.9741 36.0531 52.5649 36.315 52.2703C36.6259 51.9431 37.1332 51.9103 37.5096 52.1231C37.8206 52.2867 38.0497 52.6304 38.0333 52.9904C38.0333 53.2359 37.9352 53.4814 37.7388 53.6614C37.2642 54.136 36.4132 53.9232 36.1514 53.3177Z" fill="#ED1C24"/>
<path d="M34.3509 55.6253L34.3345 57.3927C34.3345 57.3927 37.9022 57.2127 39.0478 58.6856C39.866 58.6692 40.6679 58.6856 40.6679 58.6856C40.6679 58.6856 39.9969 55.7399 34.3509 55.6253Z" fill="#ED1C24"/>
<path d="M52.9256 50.8465H40.5044V52.3357H47.5906L47.6069 54.2995C47.3778 53.5958 45.5286 53.4812 45.2504 54.8722C44.923 53.0394 40.3735 52.663 40.3571 55.9524C40.3408 57.8343 41.7155 58.1453 42.4683 58.0144C43.1556 57.8998 43.712 57.3598 43.7939 56.6725C43.7939 56.6397 43.7939 56.607 43.8102 56.5743C43.8757 55.8214 43.2701 55.3141 42.9429 55.1014C42.861 55.0523 42.8774 54.905 42.9592 54.8722C43.352 54.7413 44.383 54.7086 44.5794 56.1978C44.6285 56.5252 44.6121 56.967 44.6121 56.967L46.1013 56.9834V56.1651V56.0669C46.1013 55.6087 46.4778 55.2487 46.8869 55.2487C47.2796 55.2487 47.5742 55.6414 47.5906 56.0833C47.5906 56.0996 47.5906 56.0996 47.5906 56.116V58.5054H49.1289V52.3193H50.3563V58.5054H51.8619V52.3193H52.942L52.9256 50.8465ZM42.3865 56.8688C42.141 56.9834 41.83 56.8525 41.6991 56.5743C41.5518 56.296 41.6336 55.9687 41.8791 55.8542C42.1246 55.7396 42.4356 55.8705 42.5665 56.1487C42.7138 56.4106 42.6319 56.7379 42.3865 56.8688Z" fill="#ED1C24"/>
</g>
<defs>
<clipPath id="clip0_49_6527">
<rect width="76" height="76" fill="white"/>
</clipPath>
</defs>
</svg>
