<svg width="98" height="99" viewBox="0 0 98 99" fill="none" xmlns="http://www.w3.org/2000/svg">
<g clip-path="url(#clip0_49_6978)">
<path d="M49.0001 95.1657C73.9658 95.1657 94.2045 74.7205 94.2045 49.5C94.2045 24.2796 73.9658 3.83435 49.0001 3.83435C24.0344 3.83435 3.79565 24.2796 3.79565 49.5C3.79565 74.7205 24.0344 95.1657 49.0001 95.1657Z" fill="#05C172"/>
<path d="M49 99C21.9836 99 0 76.796 0 49.5C0 22.2079 21.9836 0 49 0C76.0202 0 98 22.2079 98 49.5C98 76.796 76.0202 99 49 99ZM49 7.66844C26.1662 7.66844 7.59098 26.4332 7.59098 49.5C7.59098 72.5668 26.1662 91.3316 49 91.3316C71.8338 91.3316 90.409 72.5629 90.409 49.5C90.409 26.4332 71.8338 7.66844 49 7.66844Z" fill="#05C172"/>
<path d="M43.079 67.7128C42.0618 67.7128 41.0901 67.3024 40.3727 66.5663L26.3673 52.1879C24.8984 50.6772 24.9174 48.254 26.4128 46.7663C27.9083 45.2863 30.3108 45.3016 31.7797 46.8123L42.9689 58.2996L66.1178 32.5451C67.5334 30.977 69.9323 30.8658 71.477 32.2845C73.0293 33.707 73.1432 36.1302 71.735 37.7022L45.8877 66.4588C45.1856 67.241 44.1987 67.6934 43.155 67.7164C43.1284 67.7127 43.1056 67.7128 43.079 67.7128Z" fill="white"/>
</g>
<defs>
<clipPath id="clip0_49_6978">
<rect width="98" height="99" fill="white"/>
</clipPath>
</defs>
</svg>
